<svg height="1300" width="1300">
<circle cx= "650" cy="650" r="600" stroke="black" stroke-width="3" fill="red" />


<circle cx="910.330039" cy="1190.581419" r="2" fill="rgb(0,255,0)" />
<circle cx="1119.098606" cy="1024.094237" r="2" fill="rgb(0,255,0)" />
<circle cx="1234.956595" cy="783.513226" r="2" fill="rgb(0,255,0)" />
<circle cx="1234.956950" cy="516.488327" r="2" fill="rgb(0,255,0)" />
<circle cx="1119.099599" cy="275.907008" r="2" fill="rgb(0,255,0)" />
<circle cx="910.331473" cy="109.419271" r="2" fill="rgb(0,255,0)" />
<circle cx="650.001592" cy="50.000000" r="2" fill="rgb(0,255,0)" />
<circle cx="389.671396" cy="109.417890" r="2" fill="rgb(0,255,0)" />
<circle cx="180.902387" cy="275.904518" r="2" fill="rgb(0,255,0)" />
<circle cx="65.043759" cy="516.485222" r="2" fill="rgb(0,255,0)" />
<circle cx="65.042696" cy="783.510121" r="2" fill="rgb(0,255,0)" />
<circle cx="180.899409" cy="1024.091747" r="2" fill="rgb(0,255,0)" />
<circle cx="389.667092" cy="1190.580038" r="2" fill="rgb(0,255,0)" />
<circle cx="649.996816" cy="1250.000000" r="2" fill="rgb(0,255,0)" />


<line x1="910.330039" y1="1190.581419" x2="1119.098606" y2="1024.094237" style="stroke:rgb(0,255,0);stroke-width:2" />
<line x1="1119.098606" y1="1024.094237" x2="1234.956595" y2="783.513226" style="stroke:rgb(0,255,0);stroke-width:2" />
<line x1="1234.956595" y1="783.513226" x2="1234.956950" y2="516.488327" style="stroke:rgb(0,255,0);stroke-width:2" />
<line x1="1234.956950" y1="516.488327" x2="1119.099599" y2="275.907008" style="stroke:rgb(0,255,0);stroke-width:2" />
<line x1="1119.099599" y1="275.907008" x2="910.331473" y2="109.419271" style="stroke:rgb(0,255,0);stroke-width:2" />
<line x1="910.331473" y1="109.419271" x2="650.001592" y2="50.000000" style="stroke:rgb(0,255,0);stroke-width:2" />
<line x1="650.001592" y1="50.000000" x2="389.671396" y2="109.417890" style="stroke:rgb(0,255,0);stroke-width:2" />
<line x1="389.671396" y1="109.417890" x2="180.902387" y2="275.904518" style="stroke:rgb(0,255,0);stroke-width:2" />
<line x1="180.902387" y1="275.904518" x2="65.043759" y2="516.485222" style="stroke:rgb(0,255,0);stroke-width:2" />
<line x1="65.043759" y1="516.485222" x2="65.042696" y2="783.510121" style="stroke:rgb(0,255,0);stroke-width:2" />
<line x1="65.042696" y1="783.510121" x2="180.899409" y2="1024.091747" style="stroke:rgb(0,255,0);stroke-width:2" />
<line x1="180.899409" y1="1024.091747" x2="389.667092" y2="1190.580038" style="stroke:rgb(0,255,0);stroke-width:2" />
<line x1="389.667092" y1="1190.580038" x2="649.996816" y2="1250.000000" style="stroke:rgb(0,255,0);stroke-width:2" />
<line x1="910.330039" y1="1190.581419" x2="649.996816" y2="1250.000000" style="stroke:rgb(0,255,0);stroke-width:2" />

</svg>