<svg height="1920" width="1080">
  <circle cx="500" cy="500" r="400" stroke="black" stroke-width="3" fill="red" />
  
  <circle cx="782.842525" cy="782.842900" r="2" fill="rgb(0,255,0)" />
<circle cx="900.000000" cy="500.000531" r="2" fill="rgb(0,255,0)" />
<circle cx="782.843275" cy="217.157850" r="2" fill="rgb(0,255,0)" />
<circle cx="500.001061" cy="100.000000" r="2" fill="rgb(0,255,0)" />
<circle cx="217.158226" cy="217.156349" r="2" fill="rgb(0,255,0)" />
<circle cx="100.000000" cy="499.998408" r="2" fill="rgb(0,255,0)" />
<circle cx="217.155974" cy="782.841399" r="2" fill="rgb(0,255,0)" />
<circle cx="499.997877" cy="900.000000" r="2" fill="rgb(0,255,0)" />


<line x1="782.842525" y1="782.842900" x2="900.000000" y2="500.000531" style="stroke:rgb(0,255,0);stroke-width:2" />
<line x1="900.000000" y1="500.000531" x2="782.843275" y2="217.157850" style="stroke:rgb(0,255,0);stroke-width:2" />
<line x1="782.843275" y1="217.157850" x2="500.001061" y2="100.000000" style="stroke:rgb(0,255,0);stroke-width:2" />
<line x1="500.001061" y1="100.000000" x2="217.158226" y2="217.156349" style="stroke:rgb(0,255,0);stroke-width:2" />
<line x1="217.158226" y1="217.156349" x2="100.000000" y2="499.998408" style="stroke:rgb(0,255,0);stroke-width:2" />
<line x1="100.000000" y1="499.998408" x2="217.155974" y2="782.841399" style="stroke:rgb(0,255,0);stroke-width:2" />
<line x1="217.155974" y1="782.841399" x2="499.997877" y2="900.000000" style="stroke:rgb(0,255,0);stroke-width:2" />
<line x1="782.842525" y1="782.842900" x2="499.997877" y2="900.000000" style="stroke:rgb(0,255,0);stroke-width:2" />
  </svg>